<svg width="100%" height="100%" viewBox="0 0 170 133" fill="none" xmlns="http://www.w3.org/2000/svg">
<g clip-path="url(#clip0_448_73)">
<path fill-rule="evenodd" clip-rule="evenodd" d="M56.9032 0.947876H82.4296C82.5939 0.948007 82.7565 0.980755 82.908 1.04422C83.0594 1.10768 83.1968 1.20059 83.312 1.31755C83.5457 1.55501 83.6755 1.87548 83.6727 2.2085V25.4536C83.674 25.7843 83.5437 26.102 83.3106 26.3369C83.0775 26.5717 82.7606 26.7045 82.4296 26.706H56.9032" fill="#8CCC4C"/>
<path fill-rule="evenodd" clip-rule="evenodd" d="M1.5868 0.947876H62.8529V26.706H1.5868C1.42538 26.7028 1.26617 26.6679 1.11827 26.6033C0.970363 26.5386 0.836661 26.4454 0.724798 26.3291C0.612935 26.2128 0.525103 26.0756 0.466321 25.9254C0.407538 25.7752 0.378956 25.6148 0.382207 25.4536V2.16302C0.385188 1.84367 0.512695 1.53808 0.737632 1.31117C0.962568 1.08426 1.2672 0.953934 1.5868 0.947876Z" fill="#0098C5"/>
<path fill-rule="evenodd" clip-rule="evenodd" d="M56.9032 106.841H82.4296C82.5939 106.841 82.7565 106.874 82.908 106.937C83.0594 107.001 83.1968 107.094 83.312 107.211C83.5456 107.448 83.6753 107.769 83.6727 108.102V131.347C83.674 131.677 83.5437 131.995 83.3106 132.23C83.0775 132.465 82.7606 132.598 82.4296 132.599H56.9032" fill="#8CCC4C"/>
<path fill-rule="evenodd" clip-rule="evenodd" d="M1.58654 106.841H62.8526V132.599H1.58654C1.26095 132.593 0.951229 132.458 0.725378 132.223C0.499526 131.989 0.376009 131.674 0.381949 131.349V108.091C0.378157 107.767 0.502383 107.453 0.727782 107.219C0.953182 106.986 1.26165 106.85 1.58654 106.841Z" fill="#0098C5"/>
<path fill-rule="evenodd" clip-rule="evenodd" d="M18.2314 52.463L82.4296 52.5726C82.7597 52.5754 83.0755 52.7076 83.3089 52.9408C83.5423 53.174 83.6746 53.4895 83.6774 53.8193V76.9827C83.676 77.1475 83.642 77.3104 83.5773 77.462C83.5126 77.6137 83.4186 77.751 83.3005 77.8661C83.1825 77.9813 83.0428 78.0719 82.8895 78.1328C82.7362 78.1938 82.5724 78.2238 82.4074 78.2212L18.2314 78.1185" fill="#8CCC4C"/>
<path fill-rule="evenodd" clip-rule="evenodd" d="M1.55619 52.463H30.1302V78.2212H1.55619C1.23511 78.2081 0.932048 78.0695 0.712372 77.8352C0.492696 77.6009 0.374019 77.2897 0.381943 76.9687V53.7143C0.371872 53.3929 0.489861 53.0806 0.710013 52.846C0.930164 52.6114 1.23449 52.4737 1.55619 52.463Z" fill="#0098C5"/>
<path fill-rule="evenodd" clip-rule="evenodd" d="M165.752 0.947876H138.088C137.875 0.949545 137.665 1.00718 137.481 1.11502C137.297 1.22286 137.144 1.37714 137.038 1.56244L86.8114 131.098C86.3445 131.905 86.955 132.614 87.8946 132.599H114.757C114.978 132.581 115.19 132.508 115.374 132.387C115.559 132.266 115.71 132.1 115.814 131.905L166.835 2.75543C166.931 2.56978 166.978 2.36273 166.971 2.15393C166.964 1.94514 166.904 1.74153 166.797 1.56244C166.687 1.38147 166.534 1.23055 166.352 1.12327C166.17 1.01598 165.963 0.955709 165.752 0.947876Z" fill="#8CCC4C"/>
<path fill-rule="evenodd" clip-rule="evenodd" d="M165.752 0.947876H138.088C137.875 0.949545 137.665 1.00718 137.481 1.11502C137.297 1.22286 137.144 1.37714 137.038 1.56244L86.8114 131.098C86.3445 131.905 86.955 132.607 87.8946 132.599H114.757C114.977 132.58 115.189 132.506 115.373 132.385C115.557 132.264 115.709 132.099 115.814 131.905L166.835 2.75543C166.931 2.56978 166.978 2.36273 166.971 2.15393C166.964 1.94514 166.904 1.74153 166.797 1.56244C166.687 1.38147 166.534 1.23055 166.352 1.12327C166.17 1.01598 165.963 0.955709 165.752 0.947876Z" fill="url(#paint0_linear_448_73)"/>
</g>
<defs>
<linearGradient id="paint0_linear_448_73" x1="126.811" y1="0.947876" x2="126.811" y2="132.599" gradientUnits="userSpaceOnUse">
<stop stop-color="#0098C5"/>
<stop offset="0.17" stop-color="#0098C5"/>
<stop offset="0.54" stop-color="#0098C5" stop-opacity="0.431"/>
<stop offset="0.84" stop-color="#0098C5" stop-opacity="0"/>
<stop offset="1" stop-color="#0098C5" stop-opacity="0"/>
</linearGradient>
<clipPath id="clip0_448_73">
<rect width="773.452" height="131.651" fill="white" transform="translate(0.381958 0.947876)"/>
</clipPath>
</defs>
</svg>